<?xml version="1.0" encoding="utf-8"?>
<!-- Generator: Adobe Illustrator 21.0.0, SVG Export Plug-In . SVG Version: 6.00 Build 0)  -->
<svg version="1.1" id="Layer_1" xmlns="http://www.w3.org/2000/svg" xmlns:xlink="http://www.w3.org/1999/xlink" x="0px" y="0px"
	 viewBox="0 0 512 512" style="enable-background:new 0 0 512 512;" xml:space="preserve">
<g>
	<path d="M256,0C135.8,0,37.9,97.8,37.9,218.1c0,88.2,52.7,164.1,128.1,198.4c-2.1-16-3.8-31.9-4.5-45.3
		c-51.3-31.8-85.7-88.4-85.7-153.1c0-99.3,80.8-180.1,180.1-180.1s180.1,80.8,180.1,180.1c0,64.7-34.4,121.3-85.7,153.1
		c-0.7,13.4-2.4,29.3-4.5,45.3c75.5-34.3,128.1-110.3,128.1-198.4C474.1,97.8,376.2,0,256,0z M256,75.9
		c-78.4,0-142.2,63.8-142.2,142.2c0,44.6,20.7,84.5,53,110.6c4.3-11.6,11.5-22.3,21.7-31.3c-22.4-19.1-36.7-47.6-36.7-79.3
		c0-57.5,46.8-104.3,104.3-104.3s104.3,46.8,104.3,104.3c0,31.7-14.3,60.1-36.7,79.3c10.1,9,17.4,19.7,21.7,31.3
		c32.3-26.1,53-66,53-110.6C398.2,139.6,334.4,75.9,256,75.9z M256,151.7c-36.6,0-66.4,29.8-66.4,66.4s29.8,66.4,66.4,66.4
		s66.4-29.8,66.4-66.4S292.6,151.7,256,151.7z M256,189.6c15.7,0,28.4,12.8,28.4,28.4s-12.8,28.4-28.4,28.4s-28.4-12.8-28.4-28.4
		S240.3,189.6,256,189.6z M256,303.4c-59.9,0-66.4,39.4-66.4,56.3c0,31.2,10.2,93.9,15.7,117.7c2.4,10.4,12.3,34.6,50.6,34.6
		s48.2-24.2,50.6-34.6c5.6-23.8,15.7-86.5,15.7-117.7C322.4,342.8,315.9,303.4,256,303.4z M256,341.3c28.4,0,28.4,10.6,28.4,18.4
		c0,25.3-8.9,84-14.7,109c-0.5,2-1.3,5.4-13.7,5.4s-13.2-3.4-13.7-5.3c-5.8-24.9-14.7-83.7-14.7-109
		C227.6,351.9,227.6,341.3,256,341.3z"/>
</g>
</svg>
